<?xml version="1.0" encoding="utf-8"?>
<!-- Generator: Adobe Illustrator 23.0.6, SVG Export Plug-In . SVG Version: 6.00 Build 0)  -->
<svg version="1.1" id="Capa_1" xmlns="http://www.w3.org/2000/svg" xmlns:xlink="http://www.w3.org/1999/xlink" x="0px" y="0px"
	 viewBox="0 0 243.9 178.3" style="enable-background:new 0 0 243.9 178.3;" xml:space="preserve">
<style type="text/css">
	.st0{fill:#FFFFFF;}
</style>
<title>pnwx-2</title>
<path class="st0" d="M17.9,0H0v17.9C9.9,17.9,17.9,9.9,17.9,0z"/>
<path class="st0" d="M34.5,0C34.5,19,19,34.5,0,34.5v13.9h29.5l9.3-9.3c3.2-3.2,8.5-3.2,11.7,0s3.2,8.5,0,11.7l-5.9,5.9l5.9,5.9
	c3.2,3.2,3.2,8.5,0,11.7s-8.5,3.2-11.7,0l-9.3-9.3H0v21.6h15.3l4.3-4.2c3.2-3.2,8.5-3.2,11.7,0c3.2,3.2,3.2,8.5,0,11.7l0,0l-0.8,0.8
	l0.8,0.8c3.2,3.2,3.2,8.5,0,11.7s-8.5,3.2-11.7,0l-4.3-4.2H0v21.6h29.5l9.3-9.3c3.1-3.4,8.3-3.6,11.7-0.5c3.4,3.1,3.6,8.3,0.5,11.7
	c-0.2,0.2-0.3,0.3-0.5,0.5l-5.9,5.9l5.9,5.9c3.2,3.2,3.2,8.5,0,11.7s-8.5,3.2-11.7,0l-9.3-9.3H0v36.9h10.5v-5.9l-3-2
	c-3.8-2.6-4.8-7.7-2.3-11.5c2.6-3.8,7.7-4.8,11.5-2.3l0,0l2.1,1.4l2.1-1.4c3.7-2.7,8.9-2,11.6,1.7c2.7,3.7,2,8.9-1.7,11.6
	c-0.2,0.1-0.4,0.3-0.6,0.4l-3,2v5.9h79.3V0H34.5z M96.3,132.8c-1.3,4.4-5.8,6.9-10.2,5.7l-1.1-0.3l-0.3,1.1
	c-1.3,4.4-5.8,6.9-10.2,5.7c-4.4-1.3-6.9-5.8-5.7-10.2l0,0l1.7-5.8l-14.9-26.8l-5.8-1.6c-4.4-1.3-6.9-5.8-5.7-10.2
	c1.3-4.4,5.8-6.9,10.2-5.7l0,0l1.1,0.3l0.3-1.1c1.3-4.4,5.8-6.9,10.2-5.7c4.4,1.3,6.9,5.8,5.7,10.2l-1.6,5.8l14.8,26.8l5.8,1.6
	C95,123.8,97.5,128.4,96.3,132.8z"/>
<path class="st0" d="M158.1,57.7c2.8-2.7,4.4-6.5,4.3-10.4c0-2-0.4-3.9-1.2-5.7c-1.5-3.6-4.3-6.4-7.8-7.8c-1.8-0.8-3.8-1.2-5.7-1.2
	h-24.4v49h4.9c1.3,0,2.6-0.5,3.5-1.4c0.9-0.9,1.4-2.1,1.4-3.4V62h14.6C151.6,62,155.3,60.5,158.1,57.7z M133.1,42.4h14.7
	c1.3,0,2.5,0.5,3.4,1.4c1.9,1.9,1.9,5,0,6.9c0,0,0,0,0,0c-0.9,0.9-2.1,1.4-3.4,1.4h-14.7V42.4z"/>
<path class="st0" d="M211,81.6c1.4,0,2.7-0.5,3.6-1.5l0.1-0.1v-0.1c0.4-0.5,0.8-1,1-1.7c0.2-0.5,0.3-1,0.3-1.5V32.6h-9.7V66
	l-29.3-33.4v-0.1h-4.9c-1.4,0-2.7,0.6-3.6,1.6v0.1c-0.5,0.5-0.8,1-1,1.7V36c-0.2,0.5-0.3,1-0.3,1.5v44.1h4.9c1.3,0,2.6-0.5,3.5-1.4
	c0.9-0.9,1.4-2.1,1.4-3.4V48.2l29.3,33.3v0.1L211,81.6z"/>
<path class="st0" d="M195.4,93.2c-0.8,0.6-1.4,1.3-1.8,2.3l-2.7,6.7L187,112l-6.9,17.2l-3.4-8.7l7.4-18.5h-9.8l-0.1,0.2l-2.4,6.1
	l-1.5,3.7l-3.3,8.6l-3.5,8.6l-6.9-17.2l-3.9-9.7l-2.7-6.7c-0.4-0.9-1-1.7-1.8-2.2c-0.8-0.5-1.7-0.8-2.7-0.8h-6.5l19.5,48.9h9.7
	l3.5-8.6l3.4,8.6h9.8l19.5-48.9l-6.5-0.1C197.2,92.4,196.2,92.7,195.4,93.2z"/>
<path class="st0" d="M244,92.2h-7.5c-0.7,0-1.4,0.1-2,0.4c-0.6,0.3-1.2,0.6-1.7,1.1c-0.5,0.5-1,1-1.3,1.6l-5.9,11.1l-5.9-11.1
	c-0.5-0.9-1.2-1.7-2.1-2.3c-0.8-0.6-1.8-0.9-2.9-0.9h-7.5l13,24.5l-13,24.5h10.9l7.5-14.3l7.5,14.3h10.8l-12.9-24.5L244,92.2z"/>
</svg>
