<svg id="Capa_1" data-name="Capa 1" xmlns="http://www.w3.org/2000/svg" xmlns:xlink="http://www.w3.org/1999/xlink" viewBox="0 0 243.95 178.27"><defs><style>.cls-1{fill:url(#linear-gradient);}.cls-2{fill:url(#linear-gradient-2);}</style><linearGradient id="linear-gradient" x1="26.22" y1="24.48" x2="114.3" y2="292.35" gradientUnits="userSpaceOnUse"><stop offset="0" stop-color="#7ce8d3"/><stop offset="1" stop-color="#2e51e5"/></linearGradient><linearGradient id="linear-gradient-2" x1="42.32" y1="19.19" x2="130.4" y2="287.06" xlink:href="#linear-gradient"/></defs><title>pnwx-2</title><path class="cls-1" d="M42.85,38.84H24.93V56.76A17.94,17.94,0,0,0,42.85,38.84Z" transform="translate(-24.93 -38.84)"/><path class="cls-2" d="M59.41,38.84A34.52,34.52,0,0,1,24.93,73.32V87.19H54.47l9.34-9.33A8.28,8.28,0,0,1,75.52,89.57l-5.9,5.9,5.9,5.91a8.28,8.28,0,1,1-11.71,11.71l-9.34-9.33H24.93V125.4h15.3l4.26-4.25A8.28,8.28,0,0,1,56.2,132.86l-.83.82.83.83a8.28,8.28,0,1,1-11.71,11.71L40.23,142H24.93v21.64H54.48l9.33-9.33A8.28,8.28,0,1,1,75.52,166l-5.9,5.9,5.9,5.91a8.28,8.28,0,1,1-11.71,11.71l-9.33-9.34H24.93v36.94H35.38v-5.88l-3-2a8.28,8.28,0,0,1,9.24-13.75l2.06,1.39,2.06-1.39A8.28,8.28,0,1,1,55,209.2l-3,2v5.88h79.3V38.84Zm61.78,132.78A8.28,8.28,0,0,1,111,177.31l-1.12-.32-.33,1.12a8.28,8.28,0,1,1-15.92-4.56l1.65-5.78L80.38,141l-5.79-1.65a8.28,8.28,0,0,1,4.56-15.93l1.12.33.32-1.13a8.28,8.28,0,0,1,15.92,4.56L94.86,133l14.85,26.76,5.79,1.65A8.29,8.29,0,0,1,121.19,171.62Z" transform="translate(-24.93 -38.84)"/><path d="M183,96.52a14.1,14.1,0,0,0,4.34-10.37,14.4,14.4,0,0,0-1.17-5.73,14.34,14.34,0,0,0-7.83-7.84,14.48,14.48,0,0,0-5.74-1.17H148.2v49h4.87a4.8,4.8,0,0,0,3.5-1.43,4.71,4.71,0,0,0,1.43-3.44V100.82h14.6A14.26,14.26,0,0,0,183,96.52Zm-25-15.3h14.67a4.65,4.65,0,0,1,3.43,1.43,4.89,4.89,0,0,1,0,6.93A4.66,4.66,0,0,1,172.67,91H158Z" transform="translate(-24.93 -38.84)"/><path d="M235.94,120.42a4.78,4.78,0,0,0,3.6-1.53l.07-.07v-.07a5,5,0,0,0,1-1.66,4.42,4.42,0,0,0,.27-1.54V71.41h-9.74v33.47l-29.27-33.4v-.07H197a4.88,4.88,0,0,0-3.6,1.6v.07a4.38,4.38,0,0,0-1,1.67v.06a3.45,3.45,0,0,0-.33,1.54v44.07h4.87a4.78,4.78,0,0,0,3.5-1.43,4.71,4.71,0,0,0,1.43-3.44V87l29.27,33.33v.07Z" transform="translate(-24.93 -38.84)"/><path d="M220.34,132.09a4.78,4.78,0,0,0-1.8,2.27l-2.73,6.73-3.87,9.74L205.07,168l-3.4-8.67,7.4-18.47h-9.8l-.06.2-2.41,6.07-1.53,3.67-3.33,8.6-3.47,8.6-6.87-17.2-3.86-9.74-2.67-6.73a5,5,0,0,0-1.84-2.24,4.75,4.75,0,0,0-2.7-.83h-6.46l19.53,48.94h9.74l3.46-8.6,3.41,8.6H210l19.53-48.94-6.46-.07A4.74,4.74,0,0,0,220.34,132.09Z" transform="translate(-24.93 -38.84)"/><path d="M268.88,131.09h-7.47a5,5,0,0,0-2,.4,5.84,5.84,0,0,0-1.74,1.1,6.91,6.91,0,0,0-1.3,1.63l-5.87,11.14-5.93-11.14a6,6,0,0,0-2.07-2.26,5.14,5.14,0,0,0-2.86-.87h-7.54l13,24.54-13,24.47H243l7.53-14.27,7.54,14.27h10.8L256,155.63Z" transform="translate(-24.93 -38.84)"/></svg>